<svg id="SvgjsSvg1019" width="288" height="288" xmlns="http://www.w3.org/2000/svg" version="1.1" xmlns:xlink="http://www.w3.org/1999/xlink" xmlns:svgjs="http://svgjs.com/svgjs"><defs id="SvgjsDefs1020"></defs><g id="SvgjsG1021"><svg xmlns="http://www.w3.org/2000/svg" viewBox="0 0 24 24" width="288" height="288"><path fill="none" d="m0 0h24v24h-24z"></path><path d="m18.3 5.71c-.39-.39-1.02-.39-1.41 0l-4.89 4.88-4.89-4.89c-.39-.39-1.02-.39-1.41 0s-.39 1.02 0 1.41l4.89 4.89-4.89 4.89c-.39.39-.39 1.02 0 1.41s1.02.39 1.41 0l4.89-4.89 4.89 4.89c.39.39 1.02.39 1.41 0s.39-1.02 0-1.41l-4.89-4.89 4.89-4.89c.38-.38.38-1.02 0-1.4z" fill="#ffffff" class="color000 svgShape"></path></svg></g></svg>