<svg id="SvgjsSvg1011" width="288" height="288" xmlns="http://www.w3.org/2000/svg" version="1.1" xmlns:xlink="http://www.w3.org/1999/xlink" xmlns:svgjs="http://svgjs.com/svgjs"><defs id="SvgjsDefs1012"></defs><g id="SvgjsG1013"><svg xmlns="http://www.w3.org/2000/svg" viewBox="0 0 24 24" width="288" height="288"><path fill="#ffffff" d="m0 0h24v24h-24z" opacity="0" class="colorfff svgShape"></path><g fill="#ffffff" class="color231f20 svgShape"><path d="m12 15a4 4 0 0 0 4-4v-5a4 4 0 0 0 -8 0v5a4 4 0 0 0 4 4z" fill="#ffffff" class="color000 svgShape"></path><path d="m19 11a1 1 0 0 0 -2 0 5 5 0 0 1 -10 0 1 1 0 0 0 -2 0 7 7 0 0 0 6 6.92v2.08h-2.11a.89.89 0 0 0 -.89.89v.22a.89.89 0 0 0 .89.89h6.22a.89.89 0 0 0 .89-.89v-.22a.89.89 0 0 0 -.89-.89h-2.11v-2.08a7 7 0 0 0 6-6.92z" fill="#ffffff" class="color000 svgShape"></path></g></svg></g></svg>