<svg id="SvgjsSvg1048" width="288" height="288" xmlns="http://www.w3.org/2000/svg" version="1.1" xmlns:xlink="http://www.w3.org/1999/xlink" xmlns:svgjs="http://svgjs.com/svgjs"><defs id="SvgjsDefs1049"></defs><g id="SvgjsG1050"><svg xmlns="http://www.w3.org/2000/svg" viewBox="0 0 24 24" width="288" height="288"><path d="m20.84 2.18-3.93.78 2.74 3.54 1.97-.4zm-6.87 1.36-1.97.39 2.75 3.53 1.96-.39zm-4.9.96-1.97.41 2.75 3.53 1.96-.39zm-4.91 1-.98.19a2 2 0 0 0 -1.57 2.35l.39 1.96 4.9-.97zm-2.16 4.5v10c0 1.11.9 2 2 2h16c1.11 0 2-.89 2-2v-10z" fill="#ffffff" class="color000 svgShape"></path></svg></g></svg>