<svg id="SvgjsSvg1064" width="288" height="288" xmlns="http://www.w3.org/2000/svg" version="1.1" xmlns:xlink="http://www.w3.org/1999/xlink" xmlns:svgjs="http://svgjs.com/svgjs"><defs id="SvgjsDefs1065"></defs><g id="SvgjsG1066"><svg xmlns="http://www.w3.org/2000/svg" viewBox="0 0 36 36" width="288" height="288"><path d="M32.12 10h-28.24a1.88 1.88 0 00-1.88 1.88v18.24a1.88 1.88 0 001.88 1.88h28.24a1.88 1.88 0 001.88-1.88v-18.24a1.88 1.88 0 00-1.88-1.88zm-7.94 11.83l-9.77 4.36a1 1 0 01-1.41-.91v-8.72a1 1 0 011.41-.91l9.77 4.35a1 1 0 010 1.83zM30.14 3a1 1 0 00-1-1h-22a1 1 0 00-1 1v1h24zM32.12 7a1 1 0 00-1-1h-26a1 1 0 00-1 1v1h28z" fill="#ffffff" class="color000 svgShape"></path><path fill="none" d="m0 0h36v36h-36z"></path></svg></g></svg>